# xmcd
#
# Track frame offsets:
#	150
#	17968
#	39847
#	55524
#	73040
#	93015
#	105478
#	121795
#	136802
#	149147
#	164709
#	175835
#
# Disc length: 2562 seconds
#
# Revision: 0
# Processed by: cddbd v1.5.1PL0 Copyright (c) Steve Scherf et al.
# Submitted via: dBpowerAMP V4.0
#
DISCID=9d0a000c
DTITLE=David McAlmont - Set One - You Go To My Head
DYEAR=1900
DGENRE=
TTITLE0=You Go To My Head
TTITLE1=Night And Day
TTITLE2=Saving All My Love For You
TTITLE3=Blues In The Night
TTITLE4=Never Never Never
TTITLE5=Under My Skin
TTITLE6=A Certain Smile - The Shadow Of Your Smile
TTITLE7=Blues Are Brewing
TTITLE8=How Long Has This Been Going On?
TTITLE9=Black Coffee
TTITLE10=My Romance
TTITLE11=One For My Baby (Acapella)
EXTD=Blueport, Oct 2005
EXTT0=
EXTT1=
EXTT2=
EXTT3=
EXTT4=
EXTT5=
EXTT6=
EXTT7=
EXTT8=
EXTT9=
EXTT10=
EXTT11=
PLAYORDER=
